<svg width="40" height="40" viewBox="0 0 40 40" fill="none" xmlns="http://www.w3.org/2000/svg">
<path d="M20 3.61446C25.3012 3.61446 26.0241 3.61446 28.1928 3.61446C30.1205 3.61446 31.0843 4.09639 31.8072 4.33735C32.7711 4.81928 33.494 5.06024 34.2169 5.78313C34.9398 6.50603 35.4217 7.22892 35.6627 8.19277C35.9036 8.91567 36.1446 9.87952 36.3855 11.8072C36.3855 13.9759 36.3855 14.4578 36.3855 20C36.3855 25.5422 36.3855 26.0241 36.3855 28.1928C36.3855 30.1205 35.9036 31.0843 35.6627 31.8072C35.1807 32.7711 34.9398 33.494 34.2169 34.2169C33.494 34.9398 32.7711 35.4217 31.8072 35.6627C31.0843 35.9036 30.1205 36.1446 28.1928 36.3855C26.0241 36.3855 25.5422 36.3855 20 36.3855C14.4578 36.3855 13.9759 36.3855 11.8072 36.3855C9.87952 36.3855 8.91567 35.9036 8.19277 35.6627C7.22892 35.1807 6.50603 34.9398 5.78313 34.2169C5.06024 33.494 4.57831 32.7711 4.33735 31.8072C4.09639 31.0843 3.85542 30.1205 3.61446 28.1928C3.61446 26.0241 3.61446 25.5422 3.61446 20C3.61446 14.4578 3.61446 13.9759 3.61446 11.8072C3.61446 9.87952 4.09639 8.91567 4.33735 8.19277C4.81928 7.22892 5.06024 6.50603 5.78313 5.78313C6.50603 5.06024 7.22892 4.57831 8.19277 4.33735C8.91567 4.09639 9.87952 3.85542 11.8072 3.61446C13.9759 3.61446 14.6988 3.61446 20 3.61446ZM20 0C14.4578 0 13.9759 0 11.8072 0C9.63856 0 8.19277 0.481929 6.98795 0.963857C5.78313 1.44578 4.57832 2.16868 3.3735 3.3735C2.16868 4.57832 1.68675 5.54217 0.963857 6.98795C0.481929 8.19277 0.240964 9.63856 0 11.8072C0 13.9759 0 14.6988 0 20C0 25.5422 0 26.0241 0 28.1928C0 30.3614 0.481929 31.8072 0.963857 33.0121C1.44578 34.2169 2.16868 35.4217 3.3735 36.6265C4.57832 37.8313 5.54217 38.3133 6.98795 39.0362C8.19277 39.5181 9.63856 39.759 11.8072 40C13.9759 40 14.6988 40 20 40C25.3012 40 26.0241 40 28.1928 40C30.3614 40 31.8072 39.5181 33.0121 39.0362C34.2169 38.5542 35.4217 37.8313 36.6265 36.6265C37.8313 35.4217 38.3133 34.4578 39.0362 33.0121C39.5181 31.8072 39.759 30.3614 40 28.1928C40 26.0241 40 25.3012 40 20C40 14.6988 40 13.9759 40 11.8072C40 9.63856 39.5181 8.19277 39.0362 6.98795C38.5542 5.78313 37.8313 4.57832 36.6265 3.3735C35.4217 2.16868 34.4578 1.68675 33.0121 0.963857C31.8072 0.481929 30.3614 0.240964 28.1928 0C26.0241 0 25.5422 0 20 0Z" fill="#252525"/>
<path d="M20 9.63856C14.2169 9.63856 9.63856 14.2169 9.63856 20C9.63856 25.7831 14.2169 30.3614 20 30.3614C25.7831 30.3614 30.3614 25.7831 30.3614 20C30.3614 14.2169 25.7831 9.63856 20 9.63856ZM20 26.747C16.3855 26.747 13.253 23.8554 13.253 20C13.253 16.3855 16.1446 13.253 20 13.253C23.6145 13.253 26.747 16.1446 26.747 20C26.747 23.6145 23.6145 26.747 20 26.747Z" fill="#252525"/>
<path d="M30.6024 11.8072C31.9332 11.8072 33.0121 10.7284 33.0121 9.39759C33.0121 8.06679 31.9332 6.98795 30.6024 6.98795C29.2716 6.98795 28.1928 8.06679 28.1928 9.39759C28.1928 10.7284 29.2716 11.8072 30.6024 11.8072Z" fill="#252525"/>
</svg>
